<?xml version="1.0" encoding="UTF-8"?><svg xmlns="http://www.w3.org/2000/svg" width="135.12" height="241.44" xmlns:xlink="http://www.w3.org/1999/xlink" viewBox="0 0 135.12 241.44"><defs><style>.cls-1{fill:#1d1d1b;filter:url(#outer-glow-1);stroke:#1d1d1b;stroke-miterlimit:10;}.cls-2{fill:#d07ba1;opacity:0;}</style><filter id="outer-glow-1" filterUnits="userSpaceOnUse"><feOffset dx="0" dy="0"/><feGaussianBlur result="blur" stdDeviation="12"/><feFlood flood-color="#fafaf8" flood-opacity=".48"/><feComposite in2="blur" operator="in"/><feComposite in="SourceGraphic"/></filter></defs><g id="Layer_2"><g><path class="cls-2" d="M108.52,54.02c.92,0,1.92-.7,1.75-1.75-.14-.86-2.07-2.99-2.99-2.99s-1.92,.7-1.75,1.75c.14,.86,2.07,2.99,2.99,2.99Z"/><path class="cls-2" d="M106.34,66.02c.52-.17,.86-.51,1.03-1.03,.09-.69-.14-1.27-.69-1.75-.92-1.23-2.46-3.02-4.11-3.02-.52,.17-.86,.51-1.03,1.03-.09,.69,.14,1.27,.69,1.75,.92,1.23,2.46,3.02,4.11,3.02Z"/><path class="cls-2" d="M105.56,57.16c1,0,2.01-.55,1.75-1.75-.4-.76-.92-1.43-1.56-2.02-.58-.64-1.26-1.16-2.02-1.55-1,0-2.01,.55-1.75,1.75,.4,.76,.92,1.43,1.56,2.02,.58,.64,1.26,1.16,2.02,1.55Z"/><path class="cls-2" d="M103.21,55.36c.69,0,1.75-1.07,1.75-1.75s-1.02-1.7-1.71-1.7-1.75,1.07-1.75,1.75,1.02,1.7,1.71,1.7Z"/><path class="cls-2" d="M107.55,55.77c.99,0,2-.56,1.75-1.75-.39-.75-.9-1.42-1.52-1.99-.57-.63-1.24-1.14-1.99-1.52-.99,0-2,.56-1.75,1.75,.39,.75,.9,1.42,1.52,1.99,.57,.63,1.24,1.14,1.99,1.52Z"/><path class="cls-2" d="M105.67,48.48c.67,0,1.75-1.08,1.75-1.75s-.95-1.64-1.63-1.64-1.75,1.08-1.75,1.75,.95,1.64,1.63,1.64Z"/><path class="cls-2" d="M104.31,60.93c.93,0,1.93-.69,1.75-1.75-.15-.88-2.14-3.07-3.08-3.07s-1.93,.69-1.75,1.75c.15,.88,2.14,3.07,3.08,3.07Z"/><path class="cls-2" d="M107.48,45.65c.74,0,1.48-2.21,2.22-2.21-.74,0-1.48,2.21-2.22,2.21Z"/><path class="cls-2" d="M107.82,59.21c.53-.16,.87-.5,1.03-1.03,.08-.72-.17-1.32-.75-1.81-.95-1.24-2.58-3.2-4.28-3.2-.53,.16-.87,.5-1.03,1.03-.08,.72,.17,1.32,.75,1.81,.95,1.24,2.58,3.2,4.28,3.2Z"/><path class="cls-2" d="M105.98,63.34c.52-.17,.86-.52,1.03-1.03,.1-.68-.12-1.25-.66-1.73-.91-1.22-2.4-2.94-4.03-2.94-.52,.17-.86,.52-1.03,1.03-.1,.68,.12,1.25,.66,1.73,.91,1.22,2.4,2.94,4.03,2.94Z"/><path class="cls-2" d="M108.88,64.66c.55-.13,.9-.48,1.03-1.03,.02-.8-.3-1.46-.94-2-1.03-1.31-2.98-3.75-4.84-3.75-.55,.13-.9,.48-1.03,1.03-.02,.8,.3,1.46,.94,2,1.03,1.31,2.98,3.75,4.84,3.75Z"/><path class="cls-2" d="M106.28,52.03c.88,0,1.88-.77,1.75-1.75-.11-.83-1.87-2.76-2.75-2.76s-1.88,.77-1.75,1.75c.11,.83,1.87,2.76,2.75,2.76Z"/><path class="cls-2" d="M102.49,48.95c.49,0,1.38-1.15,1.65-1.48,.02-.02,.79-.79,.28-.79s-1.38,1.15-1.65,1.48c-.02,.02-.79,.79-.28,.79Z"/><path class="cls-2" d="M105.49,53.94c.92,0,1.92-.71,1.75-1.75-.14-.86-2.07-2.99-3-2.99s-1.92,.71-1.75,1.75c.14,.86,2.07,2.99,3,2.99Z"/><path class="cls-2" d="M105.53,46.11c.71,0,1.45-.73,1.82-1.31,.18-.28,.58-1.28-.21-1.28-.71,0-1.45,.73-1.82,1.31-.18,.28-.58,1.28,.21,1.28Z"/><path class="cls-2" d="M108,50.72c.73,0,1.77-1,1.75-1.75s-1.2-1.93-1.93-1.93-1.77,1-1.75,1.75,1.2,1.93,1.93,1.93Z"/><path class="cls-2" d="M109.98,59.4c.52-.17,.86-.51,1.03-1.03,.09-.69-.14-1.28-.7-1.76-.92-1.23-2.47-3.06-4.13-3.06-.52,.17-.86,.51-1.03,1.03-.09,.69,.14,1.28,.7,1.76,.92,1.23,2.47,3.06,4.13,3.06Z"/><path class="cls-2" d="M104.14,58.54c.89,0,1.88-.77,1.75-1.75-.11-.83-1.89-2.77-2.78-2.77s-1.88,.77-1.75,1.75c.11,.83,1.89,2.77,2.78,2.77Z"/><path class="cls-2" d="M111.05,62.92c.54-.15,.88-.49,1.03-1.03,.05-.75-.22-1.38-.83-1.89-.98-1.27-2.75-3.44-4.51-3.44-.54,.15-.88,.49-1.03,1.03-.05,.75,.22,1.38,.83,1.89,.98,1.27,2.75,3.44,4.51,3.44Z"/><path class="cls-2" d="M109.45,68.64c.57-.11,.92-.46,1.03-1.03-.03-.85-.38-1.56-1.07-2.13-1.09-1.35-3.26-4.13-5.22-4.13-.57,.11-.92,.46-1.03,1.03,.03,.85,.38,1.56,1.07,2.13,1.09,1.35,3.26,4.13,5.22,4.13Z"/><path class="cls-2" d="M110.85,66.37c.57-.12,.91-.46,1.03-1.03-.01-.83-.35-1.53-1.02-2.08-1.07-1.33-3.16-3.99-5.08-3.99-.57,.12-.91,.46-1.03,1.03,.01,.83,.35,1.53,1.02,2.08,1.07,1.33,3.16,3.99,5.08,3.99Z"/><path class="cls-2" d="M104.24,52.07c.75,0,1.78-.99,1.75-1.75s-1.24-1.99-1.99-1.99-1.78,.99-1.75,1.75,1.24,1.99,1.99,1.99Z"/><path class="cls-2" d="M109.07,49.08c1.43,0,2.61-2.97,.54-2.97-1.43,0-2.61,2.97-.54,2.97Z"/><path class="cls-2" d="M107.73,62.05c.54-.15,.88-.49,1.03-1.03,.05-.75-.22-1.37-.82-1.88-.98-1.27-2.73-3.41-4.49-3.41-.54,.15-.88,.49-1.03,1.03-.05,.75,.22,1.37,.82,1.88,.98,1.27,2.73,3.41,4.49,3.41Z"/></g></g><g id="Layer_1"><polygon class="cls-1" points="80.14 213.18 119.31 174.01 108.71 163.41 79.65 192.48 79.65 15.67 55.47 15.67 55.47 192.54 26.38 163.45 15.81 174.02 54.98 213.19 55.47 212.71 55.47 213.39 55.32 213.54 67.56 225.77 79.79 213.54 79.65 213.39 79.65 212.69 80.14 213.18"/></g></svg>