<?xml version="1.0" encoding="UTF-8"?><svg id="a" xmlns="http://www.w3.org/2000/svg" viewBox="0 0 528.79 250.87"><path d="M63.73,42.82c7.76,0,9.78,4.05,9.78,11.8v29.67c0,9.44-3.71,12.48-10.12,12.48h-7.76V42.82h8.09Zm1.01,97.45c8.09,0,10.45,3.71,10.45,12.81v39.79c0,10.79-2.7,13.49-9.44,13.49h-10.12v-66.09h9.1ZM0,250.87H87.67c30.35,0,45.52-19.22,45.52-58v-37.09c0-29.67-16.19-39.11-27.99-42.82,8.09-2.7,23.27-14.16,23.27-38.1v-27.65C128.47,13.15,112.96,0,84.3,0H0V250.87Z"/><path d="M480.93,88.35l-1.98,76.21h-15.17l17.15-76.21Zm47.86,162.53V0h-67.2l-64.96,250.87h47.83l8.16-36.96h24.64v36.96h51.52Z"/><path d="M341.05,88.35l-1.98,76.21h-15.17l17.15-76.21Zm47.86,162.53V0h-67.2l-64.96,250.87h47.83l8.16-36.96h24.64v36.96h51.52Z"/><polygon points="149.06 0 149.06 250.87 250.22 250.87 250.22 197.6 204.7 197.6 204.7 0 149.06 0"/></svg>