<?xml version="1.0" encoding="UTF-8"?><svg id="a" xmlns="http://www.w3.org/2000/svg" viewBox="0 0 1326.89 257.76"><defs><style>.b{fill:#1d1d1b;}</style></defs><path class="b" d="M1182.25,49.93h8.44c7.76,0,9.78,4.05,9.78,14.51v126.52c0,10.46-2.36,15.18-10.46,15.18h-7.76V49.93Zm-54.99,204.45h79.96c32.73,0,49.93-18.22,49.93-57.69V58.7c0-40.15-19.23-55.33-50.27-55.33h-79.62V254.38Z"/><path class="b" d="M1303.55,224.03v11.64c0,4.8-1.88,6.46-5.52,6.46h-3.73c-.9,0-1.33,.09-1.67,.39v12.42h.21c.56-.3,1.37-.6,3.6-.6h4.71c4.11,0,6.68-2.61,7.58-6.55,.56,2.4,2.48,6.42,7.11,6.42h.47c5.18,0,8.18-4.11,8.18-13.4v-28.94h-31.85v12.16h10.92Zm13.19,0v13.96c0,2.74-1.2,3.68-2.7,3.68h-.04c-1.54,0-2.74-.98-2.74-3.68v-13.96h5.48Zm7.75-52.96h-31.85v35.58h7.96v-23.59h4.37v22.78h7.75v-22.78h3.98v23.25h7.79v-35.24Zm-31.85-29.5v12.16h23.16v13.74h8.69v-39.65h-8.69v13.74h-23.16Zm0-21.88v13.32l31.85-16.65v-16.35l-31.85-15.76v12.33l5.14,2.44v18.19l-5.14,2.48Zm13.1-6.38v-10.57l10.96,5.22-10.96,5.35Zm18.75-66.7h-31.85v35.58h7.96v-23.59h4.37v22.78h7.75v-22.78h3.98v23.25h7.79V46.62Zm-31.85-29.5v12.16h23.16v13.74h8.69V3.37h-8.69v13.74h-23.16Z"/><path class="b" d="M1038.87,151.48h7.76c7.76,0,9.45,3.71,9.45,12.15v72.87c0,9.11,2.02,14.84,4.39,17.88h54.99v-1.69c-1.69-3.71-3.37-8.77-3.37-18.22v-83c0-18.56-12.48-29.01-21.93-32.73,9.78-4.39,21.93-14.84,21.93-38.12V47.57c0-29.69-16.87-44.2-41.5-44.2h-87.38V254.38h55.67v-102.9Zm0-104.92h8.1c7.76,0,9.11,2.7,9.11,11.81v33.74c0,9.11-3.04,12.15-10.12,12.15h-7.08V46.56Z"/><path class="b" d="M915.45,91.77l-1.98,76.25h-15.18l17.16-76.25Zm47.89,162.62V3.37h-67.23l-64.99,251.01h47.86l8.17-36.98h24.65v36.98h51.55Z"/><path class="b" d="M775.49,91.77l-1.98,76.25h-15.18l17.16-76.25Zm47.89,162.62V3.37h-67.23l-64.99,251.01h47.86l8.17-36.98h24.65v36.98h51.55Z"/><path class="b" d="M598.62,257.76c22.6,0,34.75-15.86,41.16-26.65,2.7,5.4,6.07,18.22,6.75,23.28h36.1V103.24h-68.83v46.22h15.52v46.56c0,9.45-3.71,14.17-11.47,14.17s-11.13-4.72-11.13-14.51V61.07c0-8.77,3.04-13.16,9.45-13.16,8.1,0,10.12,5.06,10.12,13.16v28.34h53.98v-29.01c0-30.36-11.47-60.39-60.39-60.39h-9.45c-45.88,0-61.4,30.03-61.4,63.76V200.74c0,30.7,15.52,57.02,46.9,57.02h2.7Z"/><path class="b" d="M481.19,91.77l-1.98,76.25h-15.18l17.16-76.25Zm47.89,162.62V3.37h-67.23l-64.99,251.01h47.86l8.17-36.98h24.65v36.98h51.55Z"/><path class="b" d="M341.24,91.77l-1.98,76.25h-15.18l17.16-76.25Zm47.89,162.62V3.37h-67.23l-64.99,251.01h47.86l8.17-36.98h24.65v36.98h51.55Z"/><polygon class="b" points="149.14 3.37 149.14 254.38 250.36 254.38 250.36 201.08 204.81 201.08 204.81 3.37 149.14 3.37"/><path class="b" d="M63.76,46.22c7.76,0,9.78,4.05,9.78,11.81v29.69c0,9.45-3.71,12.48-10.12,12.48h-7.76V46.22h8.1Zm1.01,97.5c8.1,0,10.46,3.71,10.46,12.82v39.81c0,10.8-2.7,13.5-9.45,13.5h-10.12v-66.13h9.11ZM0,254.38H87.72c30.36,0,45.55-19.23,45.55-58.03v-37.11c0-29.69-16.19-39.14-28-42.85,8.1-2.7,23.28-14.17,23.28-38.12v-27.67c0-34.07-15.52-47.23-44.2-47.23H0V254.38Z"/></svg>